<?xml version="1.0" encoding="UTF-8" standalone="no"?>
<svg
   xmlns:svg="http://www.w3.org/2000/svg"
   xmlns="http://www.w3.org/2000/svg"
   version="1.1"
   id="svg9102"
   viewBox="0 0 1017.3984 376.30137"
   height="376.30136"
   width="1017.3984">
  <defs
     id="defs9104" />
  <g
     transform="translate(214.41349,-415.6401)"
     id="layer1">
    <path
       id="path4992"
       d="m 152.58065,420.6401 c -8.98555,0 -16.52343,7.53788 -16.52343,16.52343 0,9.27729 7.53788,16.52344 16.52343,16.52344 8.98555,0 16.52344,-7.24615 16.52344,-16.52344 0,-8.98555 -7.53789,-16.52343 -16.52344,-16.52343 z m -296.48046,64.06054 c -40.86993,0 -65.51368,33.33853 -65.51368,72.18751 0,37.68202 25.22124,71.59765 65.22657,71.59765 19.13275,0 35.07195,-7.53834 46.958984,-22.61328 l 0.57812,0 0,18.84766 23.19531,0 0,-136.24805 -23.19531,0 0,19.41992 -0.57812,0 C -108.53149,493.4006 -125.34524,484.70064 -143.89981,484.70064 Z m 182.882814,0 c -18.84101,0 -35.6559997,8.12178 -46.9648497,23.19141 l -0.57812,0 0,-19.41992 -23.1914103,0 0,212.77735 23.1914103,0 0,-95.66211 0.57812,0 c 11.01712,14.78318 28.1225997,22.89843 46.6718797,22.89843 40.87524,0 65.513666,-32.75398 65.513666,-71.59765 0,-37.68733 -25.215376,-72.18751 -65.220696,-72.18751 z m 102.001946,3.77149 0,136.24805 23.19141,0 0,-136.24805 -23.19141,0 z m -282.27539,17.68554 c 28.69647,0 45.802734,22.02897 45.802734,49.27735 0,27.54013 -15.653594,51.59961 -45.511714,51.59961 -28.98821,0 -44.64063,-25.2218 -44.64063,-51.88672 0,-25.51386 17.39296,-48.99024 44.34961,-48.99024 z m 175.923834,0 c 28.70179,0 45.80273,22.02897 45.80273,49.27735 0,27.54013 -15.6536,51.59961 -45.51172,51.59961 -28.9882097,0 -44.6406197,-25.2218 -44.6406197,-51.88672 0,-25.51386 17.39296,-48.99024 44.3496097,-48.99024 z M 706.32675,665.13229 c -11.06485,0 -18.52365,6.73669 -22.61328,12.50781 -7.21922,10.10476 -9.62209,19.97158 -10.82617,23.33984 l 4.08984,0 5.05469,-7.46289 c 2.64686,-3.84563 9.14045,-7.69726 15.87695,-7.69726 l 11.30859,0 -6.97461,55.09179 c -1.20408,10.10477 -8.18561,15.63637 -12.03125,20.69141 -2.88556,3.84564 -7.45672,7.69765 -5.53125,15.87695 1.19878,5.53243 8.41766,10.82601 14.91016,9.14454 7.7019,-1.92548 11.3089,-7.22 13.23438,-16.35938 2.88556,-12.99034 7.21881,-39.45391 11.06445,-84.44531 l 27.18555,0 -4.08985,38.73242 c -1.19879,12.50764 -1.44401,31.75725 1.68555,41.14063 2.88556,8.66198 7.94147,14.91521 11.78711,17.80078 6.49782,4.57233 15.39794,2.40844 20.20898,-0.48243 6.49251,-3.60695 16.84092,-15.1539 17.31832,-37.04492 l -5.0488,0 c -0.7214,3.60697 -0.2388,10.34367 -6.25389,14.91602 -7.69659,6.01511 -14.67652,1.92408 -17.80078,-0.9668 -3.61225,-3.36825 -6.01563,-10.82599 -6.01563,-17.5625 0,-9.13937 -8e-4,-28.38308 2.88477,-56.5332 l 30.30863,0 0,-20.6875 -89.73246,0 z"
       style="fill:#243588;fill-opacity:1;fill-rule:evenodd;stroke:none" />
    <path
       id="path4998"
       d="m 26.639254,665.27682 c -8.91129,0 -11.41992,8.18981 -11.41992,17.91797 0,10.59806 3.07096,18.58594 11.77539,18.58594 4.50868,0 8.19531,-3.12454 8.19531,-3.94141 0,-0.25991 -0.10707,-0.46023 -0.30859,-0.71484 l -1.07618,-1.38477 c -0.15382,-0.15382 -0.35984,-0.4082 -0.51367,-0.4082 -0.3554,0 -3.22628,3.01757 -6.1914,3.01757 -5.22478,0 -7.27149,-6.19582 -7.27149,-15.66406 0,-8.70442 1.38499,-13.98242 6.91211,-13.98242 2.97043,0 5.83463,3.02344 6.19531,3.02344 0.20158,0 0.35399,-0.20664 0.50782,-0.4082 l 1.07812,-1.38477 c 0.20688,-0.2546 0.30664,-0.46023 0.30664,-0.71484 0,-0.82217 -3.68606,-3.94141 -8.18945,-3.94141 z m 28.97265,0 c -8.1952,0 -11.57421,7.26585 -11.57421,18.22461 0,10.90572 3.33128,18.2793 11.57421,18.2793 8.1899,0 11.56836,-7.37358 11.56836,-18.2793 0,-10.90573 -3.43149,-18.22461 -11.56836,-18.22461 z m 420.224606,0 c -5.32025,0 -10.18359,3.27764 -10.18359,9.16016 0,10.60337 14.94727,9.31941 14.94727,17.82226 0,3.4266 -2.24951,5.83594 -6.08985,5.83594 -3.58572,0 -6.70868,-1.69226 -7.73242,-2.14844 -0.25461,-0.15382 -0.50992,-0.25976 -0.7168,-0.25976 -0.30765,0 -0.40866,0.25953 -0.5625,0.66796 l -0.66797,1.68555 c -0.0477,0.20686 -0.20703,0.46141 -0.20703,0.61524 0,0.2546 0.15947,0.46171 0.41407,0.5625 0.76913,0.36068 4.55645,2.5625 9.31445,2.5625 6.24851,0 10.85742,-3.78666 10.85742,-10.03516 0,-3.37888 -1.38487,-5.78807 -4.14844,-8.03711 -4.09495,-3.37886 -10.80468,-4.35522 -10.80468,-9.72852 0,-3.4319 2.35512,-5.01757 5.43164,-5.01757 2.91738,0 5.52736,1.27844 6.49804,1.79297 0.25992,0.14852 0.51578,0.25585 0.72266,0.25585 0.35539,0 0.35368,-0.25618 0.56055,-0.66992 l 0.66406,-1.68554 c 0.053,-0.20688 0.20703,-0.46141 0.20703,-0.61524 0,-0.15382 -0.1536,-0.40867 -0.4082,-0.5625 -0.7214,-0.3607 -3.99546,-2.20117 -8.09571,-2.20117 z m 51.70118,0 c -9.01208,0 -12.39063,8.18981 -12.39063,17.91797 0,10.59806 3.2259,18.58594 12.29102,18.58594 3.12426,0 6.39736,-0.81775 8.29101,-1.89454 0.72139,-0.40842 0.72071,-0.81564 0.72071,-2.15234 l 0,-13.82422 c 0,-0.40844 -0.2068,-0.61523 -0.61524,-0.61523 l -7.68164,0 c -0.40842,0 -0.61523,0.20679 -0.61523,0.61523 l 0,2.10156 c 0,0.40844 0.2068,0.61524 0.61523,0.61524 l 4.0957,0 0,10.75195 c -0.97068,0.46148 -2.35581,0.9707 -4.71093,0.9707 -5.58017,0 -7.78125,-6.19582 -7.78125,-15.66406 0,-8.65668 2.25545,-13.98242 7.88867,-13.98242 4.09495,0 6.19055,2.51367 6.70508,2.51367 0.2546,0 0.50828,-0.36 0.66211,-0.7207 l 0.76953,-1.43164 c 0.15383,-0.30765 0.25976,-0.46111 0.25976,-0.66797 0,-0.71609 -3.79365,-3.11914 -8.5039,-3.11914 z m -446.242186,0.71484 c -0.40844,0 -0.61524,0.2015 -0.61524,0.61524 l -1.94726,33.84179 c 0,0.40844 0.20681,0.61524 0.61523,0.61524 l 2.97071,0 c 0.40843,0 0.60937,-0.2068 0.60937,-0.61524 l 0.76953,-26.31445 c 0.053,-1.02374 8.8e-4,-2.30782 -0.0469,-3.17773 l 0.0996,-0.0996 c 0.053,1.12451 0.20149,2.40751 0.61523,3.63281 l 5.94141,17.81836 c 0.14851,0.46147 0.30749,0.56641 0.76367,0.56641 l 1.53906,0 c 0.46148,0 0.56072,-0.10497 0.76758,-0.56641 l 6.19727,-17.81836 c 0.40843,-1.2253 0.561626,-2.5083 0.609366,-3.63281 l 0.10547,0.0996 c -0.053,0.86991 -0.10586,2.15399 -0.0527,3.17773 l 0.82227,26.31445 c 0,0.40844 0.20094,0.61524 0.60937,0.61524 l 2.97071,0 c 0.40844,0 0.61523,-0.2068 0.61523,-0.61524 l -2,-33.84179 c 0,-0.41374 -0.20094,-0.61524 -0.60937,-0.61524 l -3.332026,0 c -0.40844,0 -0.40673,0.10129 -0.56055,0.50977 l -6.04297,17.66406 c -0.25461,0.76913 -0.46023,2.10096 -0.71484,3.17774 l -0.10157,0 c -0.20686,-1.12452 -0.40805,-2.40861 -0.66796,-3.17774 l -6.04102,-17.66406 c -0.15382,-0.40844 -0.15406,-0.50977 -0.5625,-0.50977 l -3.32617,0 z m 38.445306,0 c -0.40844,0 -0.61523,0.2015 -0.61523,0.61524 l 0,33.84179 c 0,0.40844 0.20679,0.61524 0.61523,0.61524 l 2.9707,0 c 0.40844,0 0.61524,-0.2068 0.61524,-0.61524 l 0,-14.18359 3.68555,0 c 5.3733,0 11.06054,-2.30231 11.06054,-10.95898 0,-9.05982 -6.45006,-9.31446 -10.39648,-9.31446 l -7.93555,0 z m 30.05469,0 c -0.40844,0 -0.61524,0.2015 -0.61524,0.61524 l 0,25.03711 c 0,6.19546 2.86925,10.13672 10.59766,10.13672 7.83451,0 11.26758,-3.9943 11.26758,-10.13672 l 0,-25.03711 c 0,-0.41374 -0.20875,-0.61524 -0.61719,-0.61524 l -2.96875,0 c -0.40844,0 -0.61523,0.2015 -0.61523,0.61524 l 0,24.93164 c 0,4.66251 -2.30343,6.81054 -7.01368,6.81054 -4.81103,0 -6.44921,-2.6095 -6.44921,-6.81054 l 0,-24.93164 c 0,-0.41374 -0.20681,-0.61524 -0.61524,-0.61524 l -2.9707,0 z m 32.5,0 c -0.56226,0 -0.72266,0.30867 -0.72266,0.66407 l 0,2.30664 c 0,0.40842 0.2068,0.61132 0.61524,0.61132 l 7.63476,0 0,30.875 c 0,0.40844 0.20095,0.61524 0.60938,0.61524 l 2.9707,0 c 0.40842,0 0.61523,-0.2068 0.61523,-0.61524 l 0,-30.875 7.21875,0 c 0.3607,0 0.66844,-0.14876 0.82227,-0.5625 l 0.7168,-1.94726 c 0.0478,-0.2546 0.20117,-0.45719 0.20117,-0.66406 0,-0.30765 -0.25455,-0.40821 -0.61524,-0.40821 l -20.0664,0 z m 31.41797,0 c -0.40844,0 -0.61524,0.2015 -0.61524,0.61524 l 0,33.84179 c 0,0.40844 0.2068,0.61524 0.61524,0.61524 l 15.76953,0 c 0.56225,0 0.71484,-0.0995 0.71484,-0.71485 l 0,-2.30859 c 0,-0.3554 -0.20625,-0.5625 -0.60937,-0.5625 l -12.29102,0 0,-12.95312 10.03711,0 c 0.56226,0 0.66211,-0.0998 0.66211,-0.66211 l 0,-2.25391 c 0,-0.56226 -0.0998,-0.66797 -0.66211,-0.66797 l -10.03711,0 0,-11.36719 11.36719,0 c 0.46147,0 0.61041,-8.5e-4 0.76953,-0.45703 l 0.7168,-2.15429 c 0.0478,-0.20157 0.15429,-0.50828 0.15429,-0.66211 0,-0.15383 -0.10771,-0.3086 -0.66992,-0.3086 l -15.92187,0 z m 28.41015,0 c -0.40843,0 -0.61718,0.2015 -0.61718,0.61524 l 0,33.84179 c 0,0.40844 0.20875,0.61524 0.61718,0.61524 l 2.96875,0 c 0.40844,0 0.61524,-0.2068 0.61524,-0.61524 l 0,-15.36132 3.6875,0 8.44531,16.28515 c 0.15382,0.3554 0.40689,0.46126 0.76758,0.40821 l 3.22656,-0.61524 c 0.3607,-0.0477 0.56055,-0.20164 0.56055,-0.35547 0,-0.15382 -0.10036,-0.36093 -0.20117,-0.5625 l -8.49805,-15.51562 c 2.8113,-0.92297 6.75781,-3.79258 6.75781,-9.42578 0,-9.05982 -6.45536,-9.31446 -10.39648,-9.31446 l -7.9336,0 z m 32.07422,0 c -0.40844,0 -0.60937,0.2015 -0.60937,0.61524 l 0,33.84179 c 0,0.40844 0.20093,0.61524 0.60937,0.61524 l 2.9707,0 c 0.40844,0 0.61524,-0.2068 0.61524,-0.61524 l 0,-15.82226 13.16016,0 0,15.82226 c 0,0.40844 0.20149,0.61524 0.61523,0.61524 l 2.96484,0 c 0.41374,0 0.61524,-0.2068 0.61524,-0.61524 l 0,-33.84179 c 0,-0.41374 -0.2015,-0.61524 -0.61524,-0.61524 l -2.96484,0 c -0.41374,0 -0.61523,0.2015 -0.61523,0.61524 l 0,14.43945 -13.16016,0 0,-14.43945 c 0,-0.41374 -0.2068,-0.61524 -0.61524,-0.61524 l -2.9707,0 z m 43.60742,0 c -0.56756,0 -0.6157,0.048 -0.76953,0.5625 l -10.24219,33.33203 c -0.15382,0.3607 -0.20282,0.61119 -0.25585,0.8711 0,0.25461 0.20757,0.30664 0.71679,0.30664 l 3.17774,0 c 0.6153,0 0.81718,-0.20571 0.91797,-0.56641 l 2.61523,-9.87695 10.49609,0 2.86524,9.87695 c 0.10612,0.3607 0.30657,0.56641 0.92187,0.56641 l 3.17774,0 c 0.50922,0 0.71679,-0.052 0.71679,-0.30664 -0.053,-0.25991 -0.15367,-0.5104 -0.25976,-0.8711 l -10.29102,-33.33203 c -0.20156,-0.56226 -0.35523,-0.5625 -0.76367,-0.5625 l -3.02344,0 z m 25.73047,0 c -0.40844,0 -0.60937,0.25454 -0.60937,0.61524 l 0,33.84179 c 0,0.40844 0.20094,0.61524 0.60937,0.61524 l 2.66407,0 c 0.41373,0 0.61523,-0.2068 0.61523,-0.61524 l 0,-24.98828 c 0,-1.12452 -0.1013,-2.60995 -0.50977,-4.55664 l 0.10157,-0.0996 c 0.2546,1.43218 0.7689,3.12369 1.3789,4.45508 l 11.78125,25.29688 c 0.20157,0.35538 0.40797,0.50781 0.81641,0.50781 l 2.86914,0 c 0.40844,0 0.60937,-0.25454 0.60937,-0.61524 l 0,-33.84179 c 0,-0.41374 -0.20093,-0.61524 -0.60937,-0.61524 l -2.66211,0 c -0.40844,0 -0.61523,0.2015 -0.61523,0.61524 l 0,24.42187 c 0,0.92295 0.30711,2.04823 0.46093,3.125 l -0.10156,0.0996 c -0.46147,-1.53296 -0.61516,-2.66307 -1.23047,-3.9414 l -11.31836,-23.85743 c -0.14852,-0.30766 -0.35523,-0.46289 -0.76367,-0.46289 l -3.48633,0 z m 35.22071,0 c -0.40843,0 -0.61524,0.2015 -0.61524,0.61524 l 0,33.84179 c 0,0.40844 0.20681,0.61524 0.61524,0.61524 l 5.88867,0 c 10.44423,0 14.33789,-5.68508 14.33789,-17.86914 0,-15.51519 -6.65698,-17.20313 -13.77539,-17.20313 l -6.45117,0 z m 33.46484,0 c -0.40843,0 -0.61523,0.2015 -0.61524,0.61524 l 0,33.84179 c 0,0.40844 0.20681,0.61524 0.61524,0.61524 l 15.77148,0 c 0.56227,0 0.71485,-0.0995 0.71485,-0.71485 l 0,-2.30859 c 0,-0.3554 -0.2015,-0.5625 -0.61524,-0.5625 l -12.28515,0 0,-12.95312 10.03711,0 c 0.56225,0 0.66211,-0.0998 0.66211,-0.66211 l 0,-2.25391 c 0,-0.56226 -0.0998,-0.66797 -0.66211,-0.66797 l -10.03711,0 0,-11.36719 11.36718,0 c 0.45618,0 0.61041,-8.5e-4 0.76954,-0.45703 l 0.71679,-2.15429 c 0.0478,-0.20157 0.14844,-0.50828 0.14844,-0.66211 0,-0.15383 -0.10176,-0.3086 -0.66406,-0.3086 l -15.92383,0 z m 28.71875,0 c -0.40843,0 -0.61524,0.2015 -0.61523,0.61524 l 0,33.84179 c 0,0.40844 0.2068,0.61524 0.61523,0.61524 l 15.46289,0 c 0.35539,0 0.66258,-0.15267 0.81641,-0.56641 l 0.71484,-1.9414 c 0.053,-0.2546 0.20703,-0.4611 0.20703,-0.66797 0,-0.30765 -0.25455,-0.41016 -0.61523,-0.41016 l -13,0 0,-30.87109 c 0,-0.41374 -0.2068,-0.61524 -0.61524,-0.61524 l -2.9707,0 z m 110.49414,0 c -0.40844,0 -0.60938,0.2015 -0.60937,0.61524 l -1.94727,33.84179 c 0,0.40844 0.2068,0.61524 0.61523,0.61524 l 2.96485,0 c 0.41374,0 0.61523,-0.2068 0.61523,-0.61524 l 0.76953,-26.31445 c 0.053,-1.02374 2.7e-4,-2.30782 -0.0527,-3.17773 l 0.10547,-0.0996 c 0.0477,1.12451 0.20149,2.40751 0.61523,3.63281 l 5.93555,17.81836 c 0.15384,0.46147 0.30806,0.56641 0.76953,0.56641 l 1.53906,0 c 0.45618,0 0.56211,-0.10497 0.76367,-0.56641 l 6.19532,-17.81836 c 0.41373,-1.2253 0.56749,-2.5083 0.61523,-3.63281 l 0.0996,0.0996 c -0.0478,0.86991 -0.0999,2.15399 -0.0469,3.17773 l 0.8164,26.31445 c 0,0.40844 0.20681,0.61524 0.61524,0.61524 l 2.9707,0 c 0.40842,0 0.61523,-0.2068 0.61523,-0.61524 l -2,-33.84179 c 0,-0.41374 -0.20149,-0.61524 -0.61523,-0.61524 l -3.32422,0 c -0.40844,0 -0.40867,0.10129 -0.5625,0.50977 l -6.04297,17.66406 c -0.25461,0.76913 -0.46023,2.10096 -0.71484,3.17774 l -0.10156,0 c -0.20688,-1.12452 -0.41315,-2.40861 -0.66797,-3.17774 l -6.04102,-17.66406 c -0.15384,-0.40844 -0.15407,-0.50977 -0.5625,-0.50977 l -3.33203,0 z m 38.45117,0 c -0.40844,0 -0.61523,0.2015 -0.61523,0.61524 l 0,33.84179 c 0,0.40844 0.20679,0.61524 0.61523,0.61524 l 7.47461,0 c 4.10025,0 6.96456,-0.25323 8.95899,-1.94531 1.23061,-1.07678 3.3789,-3.48504 3.3789,-7.72852 0,-6.24851 -3.68184,-7.94125 -6.29687,-8.70508 1.69208,-0.87522 5.07031,-2.97101 5.07031,-8.34961 0,-7.93528 -6.3491,-8.34375 -10.18945,-8.34375 l -8.39649,0 z m 33.51758,0 c -0.40844,0 -0.61523,0.2015 -0.61523,0.61524 l 0,33.84179 c 0,0.40844 0.20679,0.61524 0.61523,0.61524 l 2.9707,0 c 0.40844,0 0.61133,-0.2068 0.61133,-0.61524 l 0,-15.82226 13.16016,0 0,15.82226 c 0,0.40844 0.20679,0.61524 0.61523,0.61524 l 2.9707,0 c 0.40844,0 0.61524,-0.2068 0.61524,-0.61524 l 0,-33.84179 c 0,-0.41374 -0.2068,-0.61524 -0.61524,-0.61524 l -2.9707,0 c -0.40844,0 -0.61523,0.2015 -0.61523,0.61524 l 0,14.43945 -13.16016,0 0,-14.43945 c 0,-0.41374 -0.20289,-0.61524 -0.61133,-0.61524 l -2.9707,0 z M 55.611904,668.7026 c 5.73399,0 6.95899,5.88754 6.95899,14.79883 0,8.95902 -1.17195,14.84765 -6.95899,14.84765 -5.78702,0 -6.96484,-5.88863 -6.96484,-14.84765 0,-8.91129 1.27859,-14.79883 6.96484,-14.79883 z m 67.714846,0.87109 3.9414,0 c 2.91739,0 6.60352,0.1589 6.60352,5.83985 0,6.29625 -3.42615,7.27148 -7.21875,7.27148 l -3.32617,0 0,-13.11133 z m 122.38086,0 3.9414,0 c 2.91739,0 6.60352,0.1589 6.60352,5.83985 0,5.47937 -3.43145,6.34961 -7.21875,6.34961 l -3.32617,0 0,-12.18946 z m 136.63476,0 2.8125,0 c 5.9939,0 9.21875,2.20655 9.21875,13.41993 0,8.75216 -1.53408,14.48437 -8.85937,14.48437 l -3.17188,0 0,-27.9043 z m 211.12891,0 4.71094,0 c 3.01816,0 5.67968,0.66818 5.67968,5.22461 0,5.9939 -3.78737,6.65625 -6.75781,6.65625 l -3.63281,0 0,-11.88086 z m -274.33398,1.28321 0.0996,0 c 0.2546,1.43216 0.7693,3.27728 1.17774,4.86328 l 3.07031,11.31445 -8.54883,0 3.12305,-11.31445 c 0.36069,-1.38444 0.87126,-3.63268 1.07813,-4.86328 z m 274.33398,14.02929 4.71094,0 c 3.53268,0 6.91015,1.37945 6.91015,6.34961 0,5.06565 -3.33042,6.24219 -6.65625,6.24219 l -4.96484,0 0,-12.5918 z"
       style="fill:#000000;fill-opacity:0.90196078;fill-rule:nonzero;stroke:none" />
  </g>
</svg>
